PathFileType	4	(X/Y/Z)	/Users/niels/Desktop/University/Third Semester/Perception and Action/Exam/Gymnastics Motion Tracking/Code for Gym Tracking/Analyzed Data/Webcam_Backflip/id5_1_trajectory_Sports2D/id5_1_trajectory_Sports2D_px_person00.trc
DataRate	CameraRate	NumFrames	NumMarkers	Units	OrigDataRate	OrigDataStartFrame	OrigNumFrames
29.76190476190476	29.76190476190476	7	22	m	29.76190476190476	110	126
Frame#	Time	Hip			RHip			RKnee			RAnkle			RBigToe			RSmallToe			RHeel			LHip			LKnee			LAnkle			LBigToe			LSmallToe			LHeel			Neck			Head			Nose			RShoulder			RElbow			RWrist			LShoulder			LElbow			LWrist		
		X1	Y1	Z1	X2	Y2	Z2	X3	Y3	Z3	X4	Y4	Z4	X5	Y5	Z5	X6	Y6	Z6	X7	Y7	Z7	X8	Y8	Z8	X9	Y9	Z9	X10	Y10	Z10	X11	Y11	Z11	X12	Y12	Z12	X13	Y13	Z13	X14	Y14	Z14	X15	Y15	Z15	X16	Y16	Z16	X17	Y17	Z17	X18	Y18	Z18	X19	Y19	Z19	X20	Y20	Z20	X21	Y21	Z21	X22	Y22	Z22
110	3.6960000000000006	0.6997035177518601	-0.5954164010515297	0.0	0.6207458295978232	-0.589870339563213	0.0	0.544161314226357	-0.8927444833119691	0.0	0.5805235505750077	-1.080618722981081	0.0	0.5942441435700038	-1.1130196021079466	0.0	0.6024981027306725	-1.1117163968712471	0.0	0.625594587235836	-1.0786880667667171	0.0	0.7792937815935252	-0.5985386274422708	0.0	0.8068740043515753	-0.9030914069295866	0.0	0.8056655153207427	-1.090601148095327	0.0	0.7629558501015914	-1.1365368963222149	0.0	0.7543759109265521	-1.1196328128195172	0.0	0.8033394650463742	-1.0774616131322885	0.0	0.7255762857099756	-0.1155186062400471	0.0	0.7156224689290636	0.025038068161795858	0.0	0.7180332419835178	-0.01626684103473749	0.0	0.5922574454911939	-0.18084503904403598	0.0	0.5811973066064839	-0.39004013739748117	0.0	0.5391159365869447	-0.5576409269009608	0.0	0.8639882993189829	-0.18097074873074911	0.0	0.9099707555806621	-0.395023002277164	0.0	0.8678586712107853	-0.5623387442183783	0.0
111	3.7296000000000005	0.6894004316912691	-0.5995930785682074	0.0	0.608376196628424	-0.5943248401714141	0.0	0.5343039976614691	-0.9040010329141781	0.0	0.5444711570864289	-1.0845185624935323	0.0	0.587905857867566	-1.113547478857356	0.0	0.5968926674904607	-1.1135935333401643	0.0	0.604297068452781	-1.0810804075689178	0.0	0.7706612989523597	-0.6038890040945113	0.0	0.8031760748496857	-0.9088408251749843	0.0	0.8040643213913843	-1.0902124461727434	0.0	0.7629350503269262	-1.136458514851357	0.0	0.7524358572288312	-1.1190086050273997	0.0	0.801233502977043	-1.0759114691590308	0.0	0.712695602057479	-0.11359885242378592	0.0	0.700285450298319	0.023809054177996287	0.0	0.7037595069434539	-0.013663029396873132	0.0	0.5780803696750866	-0.17825013204512602	0.0	0.572452514727977	-0.3896418623867547	0.0	0.530326569424449	-0.5596002750495765	0.0	0.8538988615311218	-0.17802864953022363	0.0	0.8991319926767347	-0.3966741618902615	0.0	0.8559078666516694	-0.569529684318722	0.0
112	3.7632000000000003	0.6777605993521452	-0.6044137779881651	0.0	0.5946099508939965	-0.5996978785733318	0.0	0.5255852177884834	-0.9158980795041202	0.0	0.5155062142210652	-1.0860386993861084	0.0	0.5862460038933988	-1.1136437520990548	0.0	0.5952566889417389	-1.1142343566807984	0.0	0.5919575089230468	-1.0815072905771168	0.0	0.7603477286241448	-0.6094130027924761	0.0	0.7981573270878529	-0.9144227712387961	0.0	0.8021687833729069	-1.0898605505076024	0.0	0.7628990626725232	-1.136428591142387	0.0	0.7545666124049856	-1.119236276125981	0.0	0.7994050304908292	-1.0747176805236254	0.0	0.6977733539695441	-0.11246081538017572	0.0	0.6831351390766047	0.021900970412898	0.0	0.6873607339205517	-0.012572321276656332	0.0	0.5618254007882738	-0.17609600433430828	0.0	0.5606780518645256	-0.390433961992314	0.0	0.5190272216940358	-0.56426212395313	0.0	0.8416329687803252	-0.17574691849181603	0.0	0.8852631238325872	-0.39854269905704426	0.0	0.8439733372333852	-0.577696760136492	0.0
113	3.7968000000000006	0.6641682050095467	-0.6090653228657397	0.0	0.5789062596806394	-0.605205255705381	0.0	0.5165454352418104	-0.9267938930939313	0.0	0.49392297013758896	-1.087686531099797	0.0	0.5869652776191034	-1.113535882172722	0.0	0.5957007299736272	-1.1141919203331387	0.0	0.586645282760136	-1.081007647431705	0.0	0.747854365627613	-0.6141607404484234	0.0	0.7912325755892733	-0.9190279426246886	0.0	0.7999435265230972	-1.089569225758272	0.0	0.7628665156655736	-1.1364267449228107	0.0	0.7652774862081411	-1.1215160629978282	0.0	0.7978587579606157	-1.0745217585858784	0.0	0.6809685642919743	-0.11146316773233296	0.0	0.6643002601329294	0.01934688659020353	0.0	0.6691694093630673	-0.012438265016104302	0.0	0.5437174999741444	-0.17390950637514643	0.0	0.5453250740438901	-0.3919315651428707	0.0	0.5045358546940213	-0.5713135718545166	0.0	0.8271898087654365	-0.1732436170811848	0.0	0.8686028635711321	-0.3996172712447284	0.0	0.8314610024511521	-0.5852577761014143	0.0
114	3.8304000000000005	0.6481522033408577	-0.6128173097408528	0.0	0.560839318752959	-0.6100878652154503	0.0	0.506195223087307	-0.9358490314399446	0.0	0.4783958079127597	-1.0921431389173988	0.0	0.5884725838264817	-1.113372847203088	0.0	0.5968835947663156	-1.113878883518552	0.0	0.5856673017142616	-1.080260347074862	0.0	0.7328602839031262	-0.6173570538314566	0.0	0.7819722219836643	-0.9222766116434697	0.0	0.7970932997791326	-1.0894134568366443	0.0	0.762844170832539	-1.136436987284622	0.0	0.7900510670017988	-1.12730848525044	0.0	0.7962263826064763	-1.0757297780607742	0.0	0.6625584642260605	-0.10971500028939296	0.0	0.6439468866650327	0.016413849493965408	0.0	0.6495960974511213	-0.012200753439522892	0.0	0.524034765323233	-0.17120459681143135	0.0	0.5261937586201887	-0.3934961008488517	0.0	0.4864411577216425	-0.5797893773838392	0.0	0.810759723563656	-0.16967334352861285	0.0	0.8497334653149113	-0.39921715506758204	0.0	0.8176724810554853	-0.5909772006318684	0.0
115	3.8640000000000008	0.6297053440845563	-0.6152873277949302	0.0	0.5404481390019702	-0.6139303186553906	0.0	0.4942528623354465	-0.9430634713700143	0.0	0.4670494675108735	-1.1017052082143821	0.0	0.5898984880899609	-1.1132310302893038	0.0	0.5980522853136094	-1.1135386063355635	0.0	0.586742383867143	-1.0796124508252356	0.0	0.7154705910516813	-0.6187395609487667	0.0	0.7702951374563007	-0.9243748773906781	0.0	0.7930479344224003	-1.0894468944620166	0.0	0.7628320665803912	-1.1364494562268272	0.0	0.8329707409149046	-1.1378034807423405	0.0	0.7938112313889586	-1.0784523120691463	0.0	0.6428930698706923	-0.10638989851788866	0.0	0.622256870299884	0.01364145281045815	0.0	0.6289437062233402	-0.010769367817684568	0.0	0.5029889351962651	-0.1676767207390054	0.0	0.5035896158269876	-0.3945353125631217	0.0	0.46485935491050373	-0.5884847462429357	0.0	0.7927744627857048	-0.1645379947692173	0.0	0.829551735601363	-0.39706867170923094	0.0	0.8022258907401879	-0.5940819607301706	0.0
116	3.8976000000000006	0.609437614120148	-0.6165838810386197	0.0	0.5184567601194148	-0.6168372215522449	0.0	0.481150985931885	-0.9488945977062601	0.0	0.4583450988798212	-1.1175679365724565	0.0	0.5909060504766338	-1.1131362374148448	0.0	0.5988997873655414	-1.113278898242688	0.0	0.588374893888814	-1.07918040481163	0.0	0.6963267877541149	-0.6187029987902194	0.0	0.7565346915790045	-0.9260190582767879	0.0	0.7870336226765731	-1.0895938448586284	0.0	0.7628274556384075	-1.1364594799214547	0.0	0.8919914375200633	-1.1527938984471975	0.0	0.7896283152235751	-1.0822074122187142	0.0	0.6223647350444185	-0.10128344876900205	0.0	0.5994380289935484	0.011766713915655543	0.0	0.6073557897950208	-0.007793881075478892	0.0	0.4807250059675568	-0.1633392139919543	0.0	0.4783904768937356	-0.39481174523418916	0.0	0.44056341624954326	-0.5965434096010825	0.0	0.7738998718258381	-0.15793541582244003	0.0	0.8091924770884324	-0.39327135549518816	0.0	0.7852871729169132	-0.5942922883598455	0.0
